<svg width="100" height="60" viewBox="0 0 100 60" fill="none" xmlns="http://www.w3.org/2000/svg">
    <rect x="2.5" y="2.5" width="95" height="55" rx="7.5" stroke="#003327" stroke-width="5"/>
    <path d="M24.9506 38.6L28.1106 38.2V14.28L25.1106 13.72V11.28H30.9106C31.4173 11.28 31.9773 11.2667 32.5906 11.24C33.204 11.2133 33.6706 11.1867 33.9906 11.16C35.3773 11.0533 36.524 11 37.4306 11C40.1773 11 42.3773 11.28 44.0306 11.84C45.684 12.4 46.884 13.2533 47.6306 14.4C48.3773 15.5467 48.7506 17.0533 48.7506 18.92C48.7506 20.76 48.2573 22.4667 47.2706 24.04C46.284 25.6133 44.8573 26.6933 42.9906 27.28C44.0573 27.7333 45.004 28.56 45.8306 29.76C46.6573 30.96 47.5373 32.52 48.4706 34.44C49.1373 35.7467 49.644 36.6933 49.9906 37.28C50.364 37.84 50.724 38.16 51.0706 38.24L52.3906 38.64V41H45.5906C45.164 41 44.7106 40.5733 44.2306 39.72C43.7773 38.84 43.1773 37.4667 42.4306 35.6C41.5506 33.4133 40.7906 31.7067 40.1506 30.48C39.5106 29.2533 38.8306 28.4933 38.1106 28.2H33.9906V38.2L37.6706 38.6V41H24.9506V38.6ZM37.6706 25.76C39.1906 25.76 40.3773 25.2133 41.2306 24.12C42.084 23.0267 42.5106 21.3867 42.5106 19.2C42.5106 17.2533 42.084 15.8133 41.2306 14.88C40.404 13.9467 38.964 13.48 36.9106 13.48C36.164 13.48 35.524 13.52 34.9906 13.6C34.484 13.6533 34.1506 13.68 33.9906 13.68V25.68C34.3106 25.7333 35.084 25.76 36.3106 25.76H37.6706ZM76.1388 29.16C76.1388 31.4 75.6721 33.4533 74.7388 35.32C73.8321 37.1867 72.4854 38.68 70.6988 39.8C68.9388 40.8933 66.8321 41.44 64.3788 41.44C63.8454 41.44 63.2854 41.3867 62.6988 41.28C62.1388 41.2 61.6854 41.0933 61.3388 40.96L61.4588 44.28V47.92L65.1788 48.4V50.68H53.2988V48.4L55.8988 47.92V22.56L53.2988 21.84V19.08L59.8988 18.24H59.9788L60.9788 19.04V21.28C61.6454 20.4533 62.5521 19.7333 63.6988 19.12C64.8454 18.5067 66.0988 18.2 67.4588 18.2C69.9921 18.2 72.0721 19.1067 73.6988 20.92C75.3254 22.7067 76.1388 25.4533 76.1388 29.16ZM65.3788 21.52C64.5788 21.52 63.8188 21.6933 63.0988 22.04C62.3788 22.3867 61.8321 22.7733 61.4588 23.2V38.04C61.6454 38.3067 62.0188 38.5333 62.5788 38.72C63.1654 38.9067 63.8054 39 64.4988 39C66.2321 39 67.6054 38.2533 68.6188 36.76C69.6588 35.24 70.1788 32.8667 70.1788 29.64C70.1788 26.92 69.7388 24.8933 68.8588 23.56C67.9788 22.2 66.8188 21.52 65.3788 21.52Z" fill="#003327"/>
</svg>
