<svg width="102" height="62" viewBox="0 0 102 62" fill="none" xmlns="http://www.w3.org/2000/svg">
    <path d="M92.8825 45.1634V45.1634C96.8134 44.8744 99.6873 41.4603 99.3016 37.5377L96.7858 11.952C96.2454 6.45566 91.3421 2.32825 85.8342 2.73318L24.9361 7.21013C20.5568 7.53207 17.355 11.3357 17.7847 15.7057V15.7057" stroke="#003327" stroke-width="5" stroke-linecap="round"/>
    <rect x="2.5" y="13.8945" width="89.0507" height="45.6054" rx="7.5" fill="#4CFFD5" stroke="#003327" stroke-width="5"/>
    <path d="M35.3464 36.0113L27.5713 45.2661C27.0247 45.9167 27.4872 46.9093 28.337 46.9093H63.8984C64.6816 46.9093 65.1608 46.0498 64.7491 45.3836L53.4333 27.0738C53.0624 26.4737 52.2035 26.436 51.7814 27.0012L42.6814 39.1869C42.3469 39.6348 41.7103 39.7216 41.2682 39.3795L36.724 35.8637C36.2996 35.5353 35.6916 35.6005 35.3464 36.0113Z" stroke="#003327" stroke-width="5" stroke-linecap="round"/>
    <circle cx="33" cy="28" r="4" fill="#003327"/>
</svg>
